<?xml version="1.0" ?><svg viewBox="0 0 64 64" xmlns="http://www.w3.org/2000/svg"><title/><g data-name="Outline putus" id="Outline_putus"><path d="M53.7861,48.67a83.9378,83.9378,0,0,0-9.9873-16.1528,1,1,0,1,0-1.6,1.2012,84.6157,84.6157,0,0,1,9.41,14.9985,37.5263,37.5263,0,0,1-19.4371,5.2039l-.0014,0c-.0114.001-.03,0-.044.0009a2.4537,2.4537,0,0,1-.2978-.0009l-.0012,0a37.6732,37.6732,0,0,1-19.4363-5.2053c2.9645-6.3487,7.4341-12.49,11.5045-17.7368A.9277.9277,0,0,0,24,31h2.16a29.6034,29.6034,0,0,0-2.1077,4.6836,1,1,0,1,0,1.8964.6328A29.9766,29.9766,0,0,1,28.4634,31h1.1752A13.8417,13.8417,0,0,0,29,34a1,1,0,0,0,2,0,16.5232,16.5232,0,0,1,.73-3h3.7256A18.3891,18.3891,0,0,1,37.06,34.34,1,1,0,1,0,38.94,33.66,20.6867,20.6867,0,0,0,37.7567,31h2.8566a.9944.9944,0,0,0,.3551-.0719.947.947,0,0,0,.1145-.0615.97.97,0,0,0,.1437-.077c.0169-.0133.0244-.0329.04-.047a.9728.9728,0,0,0,.1332-.155.6636.6636,0,0,0,.1593-.3251.9717.9717,0,0,0,.0409-.2031c.0013-.0208.012-.0383.012-.0594a.929.929,0,0,0-.0242-.12.7825.7825,0,0,0-.1328-.3858.9384.9384,0,0,0-.0539-.1081,5.9843,5.9843,0,0,1-1.08-2.5263c.3017-1.2466.8965-3.6206,1.498-5.5157A20.8205,20.8205,0,0,0,43,14.7378V11a3,3,0,0,0-6,0v4.3276a19.5534,19.5534,0,0,0-5,3.3,19.5534,19.5534,0,0,0-5-3.3V11a3,3,0,0,0-6,0l.001,3.7705a20.7612,20.7612,0,0,0,1.18,6.5742c.1943.61.3857,1.2666.5693,1.9224a1,1,0,1,0,1.9258-.5381c-.1895-.6792-.3887-1.3584-.5889-1.9893A18.7781,18.7781,0,0,1,23,14.7378V11a1,1,0,0,1,2,0v5a1,1,0,0,0,.6748.9458,16.8392,16.8392,0,0,1,5.6231,3.7666,1,1,0,0,0,1.4042,0,17.0354,17.0354,0,0,1,5.6231-3.7666A1,1,0,0,0,39,16V11a1,1,0,0,1,2,0l.001,3.7051a18.8372,18.8372,0,0,1-1.0879,6.0342c-.5421,1.7081-1.0673,3.7368-1.44,5.2607H24.6758v.0105a.9937.9937,0,0,0-1,.9216,6.4031,6.4031,0,0,1-1.0772,2.4536C18.2178,35.0156,13.32,41.71,10.2139,48.67a1,1,0,0,0,.3193,1.2124c.3359.2485,8.3291,6.04,21.3184,6.0391.0487,0,.0988,0,.1484-.0005s.0992.0005.1484.0005c12.9883,0,20.9825-5.7906,21.3184-6.0391A1.0006,1.0006,0,0,0,53.7861,48.67ZM38.8984,29H25.1063a8.39,8.39,0,0,0,.3793-1H38.52A7.7919,7.7919,0,0,0,38.8984,29Z"/></g></svg>