<?xml version="1.0" ?><svg xmlns="http://www.w3.org/2000/svg" width="24" height="24" viewBox="0 0 24 24" fill="none"><path d="M11.2275 3.77675C11.7296 3.6136 12.2704 3.6136 12.7725 3.77675L16.2085 4.89316C16.7106 5.0563 17.1482 5.37422 17.4585 5.80134L19.5821 8.72414C19.8924 9.15126 20.0595 9.66566 20.0595 10.1936V13.8064C20.0595 14.3343 19.8924 14.8487 19.5821 15.2759L17.4585 18.1987C17.1482 18.6258 16.7106 18.9437 16.2085 19.1068L12.7725 20.2233C12.2704 20.3864 11.7296 20.3864 11.2275 20.2233L7.79149 19.1068C7.28938 18.9437 6.85181 18.6258 6.54149 18.1987L4.41795 15.2759C4.10763 14.8487 3.94049 14.3343 3.94049 13.8064V10.1936C3.94049 9.66566 4.10763 9.15126 4.41795 8.72414L6.54149 5.80134C6.85181 5.37422 7.28938 5.0563 7.79149 4.89316L11.2275 3.77675Z" stroke="black"/><path d="M8.625 15.375L15.375 8.625" stroke="black" stroke-linecap="round" stroke-linejoin="round"/><circle cx="9.75" cy="9.75" r="0.625" stroke="black"/><circle cx="14.25" cy="14.25" r="0.625" stroke="black"/></svg>